<svg width="512" height="512" viewBox="0 0 512 512" fill="none" xmlns="http://www.w3.org/2000/svg">
<g clip-path="url(#clip0_113_1429)">
<path d="M490.667 469.333C481.813 469.333 471.04 464.917 459.627 460.245C445.589 454.507 429.675 448 412.437 448C395.2 448 379.285 454.507 365.248 460.245C353.835 464.917 343.04 469.333 334.208 469.333C325.376 469.333 314.581 464.917 303.168 460.245C289.131 454.507 273.216 448 255.979 448C238.741 448 222.827 454.507 208.789 460.245C200.512 463.637 192.576 466.88 185.472 468.416L265.515 287.701L418.816 357.589C427.157 361.408 436.032 363.307 444.907 363.307C454.805 363.307 464.682 360.939 473.813 356.245C491.2 347.307 503.339 331.093 507.093 311.808C530.731 190.315 472.96 71.5733 366.571 23.0613C257.045 -26.88 126.144 7.59466 55.2958 105.088C43.5838 121.216 39.7652 141.568 44.8638 160.939C49.8345 179.84 62.7198 195.243 80.2345 203.221L226.688 269.995L143.083 458.773C129.963 453.461 115.307 448 99.5412 448C82.3038 448 66.3892 454.507 52.3518 460.245C40.9385 464.917 30.1652 469.333 21.3118 469.333C9.53585 469.333 -0.0214844 478.891 -0.0214844 490.667C-0.0214844 502.443 9.53585 512 21.3118 512C38.5492 512 54.4638 505.493 68.5012 499.755C79.9145 495.083 90.6878 490.667 99.5412 490.667C108.395 490.667 119.168 495.083 130.581 499.755C144.619 505.493 160.533 512 177.771 512C195.008 512 210.923 505.493 224.96 499.755C236.373 495.083 247.147 490.667 256 490.667C264.853 490.667 275.627 495.083 287.04 499.755C301.077 505.493 316.992 512 334.229 512C351.467 512 367.381 505.493 381.419 499.755C392.832 495.083 403.627 490.667 412.459 490.667C421.291 490.667 432.085 495.083 443.499 499.755C457.536 505.493 473.451 512 490.688 512C502.464 512 512.021 502.443 512.021 490.667C512.021 478.891 502.443 469.333 490.667 469.333ZM86.1225 150.059C84.3092 143.147 85.6532 135.893 89.8132 130.155C147.819 50.3467 259.2 20.9707 348.885 61.8667C437.248 102.165 485.099 201.579 465.237 303.637C463.531 312.363 457.664 316.544 454.315 318.272C448.683 321.173 442.24 321.365 436.544 318.741L97.9412 164.416C89.9839 160.789 87.1252 153.856 86.1225 150.059Z" fill="#404040"/>
</g>
<defs>
<clipPath id="clip0_113_1429">
<rect width="512" height="512" fill="white"/>
</clipPath>
</defs>
</svg>
