<svg width="512" height="512" viewBox="0 0 512 512" fill="none" xmlns="http://www.w3.org/2000/svg">
<path d="M405.333 21.3333H192C133.12 21.3333 85.3333 69.12 85.3333 128V298.667C85.3333 357.547 133.12 405.333 192 405.333H405.333C464.213 405.333 512 357.547 512 298.667V128C512 69.12 464.213 21.3333 405.333 21.3333ZM192 64H405.333C424.32 64 441.387 72.32 453.12 85.3333L343.893 194.56C318.933 219.52 278.4 219.52 253.44 194.56L144.213 85.3333C155.947 72.1066 173.013 64 192 64ZM405.333 362.667H192C156.8 362.667 128 333.867 128 298.667V129.493L223.147 224.64C243.84 245.333 271.36 255.787 298.667 255.787C325.973 255.787 353.28 245.333 374.187 224.64L469.333 129.493V298.667C469.333 333.867 440.533 362.667 405.333 362.667ZM405.333 469.333C405.333 481.067 395.733 490.667 384 490.667H106.667C47.7867 490.667 0 442.88 0 384V149.333C0 137.6 9.6 128 21.3333 128C33.0667 128 42.6667 137.6 42.6667 149.333V384C42.6667 419.2 71.4667 448 106.667 448H384C395.733 448 405.333 457.6 405.333 469.333Z" fill="#404040"/>
</svg>
