<svg width="22" height="22" viewBox="0 0 20 21" fill="none" xmlns="http://www.w3.org/2000/svg">
    <path
        d="M16.5152 13.8521V16.3448C16.5152 16.9242 16.5152 17.2139 16.4078 17.4352C16.3134 17.6298 16.1627 17.7881 15.9774 17.8872C15.7667 18 15.491 18 14.9394 18H3.81061C3.25904 18 2.98326 18 2.77259 17.8872C2.58727 17.7881 2.43661 17.6298 2.34219 17.4352C2.23485 17.2139 2.23485 16.9242 2.23485 16.3448V13.8521M12.5758 6.10345V4.65517C12.5758 4.07581 12.5758 3.78613 12.4684 3.56484C12.374 3.37019 12.2233 3.21193 12.038 3.11275C11.8274 3 11.5516 3 11 3H7.75C7.19843 3 6.92265 3 6.71198 3.11275C6.52667 3.21193 6.37601 3.37019 6.28158 3.56484C6.17424 3.78613 6.17424 4.07581 6.17424 4.65517V6.10345M11.5909 12.3103V14.8966M7.15909 12.3103V14.8966M2.82576 13.8621H15.9242C16.4758 13.8621 16.7516 13.8621 16.9623 13.7493C17.1476 13.6501 17.2982 13.4919 17.3927 13.2972C17.5 13.0759 17.5 12.7863 17.5 12.2069V7.75862C17.5 7.17926 17.5 6.88957 17.3927 6.66829C17.2982 6.47364 17.1476 6.31538 16.9623 6.2162C16.7516 6.10345 16.4758 6.10345 15.9242 6.10345H2.82576C2.27419 6.10345 1.99841 6.10345 1.78774 6.2162C1.60243 6.31538 1.45176 6.47364 1.35734 6.66829C1.25 6.88957 1.25 7.17926 1.25 7.75862V12.2069C1.25 12.7863 1.25 13.0759 1.35734 13.2972C1.45176 13.4919 1.60243 13.6501 1.78774 13.7493C1.99841 13.8621 2.27419 13.8621 2.82576 13.8621Z"
        stroke="#404040" stroke-width="1.50926" stroke-linecap="round" stroke-linejoin="round" />
</svg>