<svg width="16" height="17" viewBox="0 0 16 17" fill="none" xmlns="http://www.w3.org/2000/svg">
<g clip-path="url(#clip0_181_10417)">
<path d="M4.36063 1.70911C4.22673 1.57522 4.04514 1.5 3.85579 1.5C2.27858 1.5 1 2.77858 1 4.35579V5.70287C1 6.56503 1.20767 7.41451 1.60543 8.17943C2.87791 10.6265 4.87349 12.6221 7.32057 13.8946C8.08549 14.2923 8.93497 14.5 9.79713 14.5H11.7511C12.9932 14.5 14 13.4932 14 12.2511C14 11.6872 13.7182 11.1606 13.2489 10.8478C13.0018 10.683 11.9592 9.98793 11.8259 9.9549C11.7014 9.92405 11.5713 9.92405 11.4468 9.9549C11.3136 9.98793 10.1766 10.798 9.81975 10.9565C9.46292 11.115 9.05995 11.1354 8.68894 11.0137C8.56139 10.9719 7.79473 10.6219 7.27758 10.2767C6.33395 9.64682 5.84401 9.17212 5.22327 8.22242C4.94088 7.79038 4.64415 7.15781 4.6065 7.05349C4.45276 6.6275 4.50985 5.99622 4.82936 5.5714C5.14888 5.14658 6.09179 4.287 6.15024 4.1071C6.20166 3.94886 6.20166 3.77841 6.15024 3.62017C6.10901 3.49328 4.36063 1.70911 4.36063 1.70911Z" stroke="#404040" stroke-width="1.20741" stroke-miterlimit="1.41421" stroke-linejoin="round"/>
</g>
<defs>
<clipPath id="clip0_181_10417">
<rect width="16" height="16" fill="white" transform="translate(0 0.5)"/>
</clipPath>
</defs>
</svg>
