<svg width="22" height="22" viewBox="0 0 18 18" fill="none" xmlns="http://www.w3.org/2000/svg">
<g clip-path="url(#clip0_992_6132)">
<path d="M9.65625 3H13.5C14.1562 3.04688 14.2794 3.15804 14.5607 3.43934C14.842 3.72064 15 4.10218 15 4.5V15C15 15.3978 14.842 15.7794 14.5607 16.0607C14.2794 16.342 13.8978 16.5 13.5 16.5H4.5C4.10218 16.5 3.72064 16.342 3.43934 16.0607C3.15804 15.7794 3 15.3978 3 15V4.5C3 4.10218 3.15804 3.72064 3.43934 3.43934C3.72064 3.15804 4.10218 3 4.5 3H8.15625" stroke-width="1.50926" stroke="#404040" stroke-linecap="round" stroke-linejoin="round"/>
<path d="M9.75 1.54688H8.0625C7.90717 1.54688 7.78125 1.71477 7.78125 1.92188V2.67188C7.78125 2.87898 7.90717 3.04688 8.0625 3.04688H9.75C9.90533 3.04688 10.0312 2.87898 10.0312 2.67188V1.92188C10.0312 1.71477 9.90533 1.54688 9.75 1.54688Z" stroke="#404040" stroke-linecap="round" stroke-width="1.50926" stroke-linejoin="round"/>
<path d="M11.8125 8.29688L8.00977 12.0996L6.28125 10.3711" stroke="#404040" stroke-width="1.50926" stroke-linecap="round" stroke-linejoin="round"/>
</g>
<defs>
<clipPath id="clip0_992_6132">
<rect width="18" height="18" fill="white"/>
</clipPath>
</defs>
</svg>
