<svg width="25" height="25" viewBox="0 0 20 20" fill="none" xmlns="http://www.w3.org/2000/svg">
<path d="M3 9.12621C3 8.8104 3.14917 8.51316 3.40238 8.32443L11.4024 2.36147C11.757 2.09717 12.243 2.09717 12.5976 2.36147L20.5976 8.32443C20.8508 8.51316 21 8.8104 21 9.12621V19.166C21 19.6743 20.7893 20.1619 20.4142 20.5213C20.0391 20.8807 19.5304 21.0827 19 21.0827H5C4.46957 21.0827 3.96086 20.8807 3.58579 20.5213C3.21071 20.1619 3 19.6743 3 19.166V9.12621Z" stroke="#404040" stroke-width="1.50926" stroke-linecap="round" stroke-linejoin="round"/>
<path d="M6.74219 11.5879H17.1699C17.4772 11.5879 17.7266 11.8372 17.7266 12.1445V17.165C17.7265 17.4713 17.4781 17.7197 17.1719 17.7197H6.74023C6.43399 17.7197 6.18556 17.4713 6.18555 17.165V12.1445C6.18555 11.8372 6.43487 11.5879 6.74219 11.5879Z" stroke="#404040" stroke-width="1.50926"/>
<path d="M11.8896 13.9414C12.2889 13.9414 12.5946 14.2442 12.5947 14.5957C12.5947 14.9473 12.289 15.251 11.8896 15.251C11.4905 15.2508 11.1855 14.9472 11.1855 14.5957C11.1857 14.2443 11.4906 13.9416 11.8896 13.9414Z" stroke="#404040" stroke-width="1.50926"/>
<circle cx="12.0609" cy="7.06093" r="1.87545" stroke="#404040" stroke-width="1.50926"/>
<path d="M15 11.5C15 10.3954 13.6569 9 12 9C10.3431 9 9 10.3954 9 11.5" stroke="#404040" stroke-width="1.50926"/>
</svg>
